# xmcd
#
# Track frame offsets:
#	150
#	12717
#	28022
#	49300
#	66620
#	83507
#	102862
#	124385
#	145877
#	164437
#	180962
#	198442
#	213232
#	230092
#
# Disc length: 3291 seconds
#
# Revision: 3
# Processed by: cddbd v1.5.2PL0 Copyright (c) Steve Scherf et al.
# Submitted via: EZCDAudioConverter 7.1.5.1
#
DISCID=cb0cd90e
DTITLE=邰正宵 - 两边 新歌＋精选 CD.1
DYEAR=2004
DGENRE=
TTITLE0=1234...
TTITLE1=你为什么没有变
TTITLE2=听雨
TTITLE3=烟蒂
TTITLE4=你就在我的歌里面
TTITLE5=不要说不要
TTITLE6=爱情背后的日子
TTITLE7=两边
TTITLE8=木头人
TTITLE9=幸福纪念日
TTITLE10=男子汉
TTITLE11=爱情不变定律
TTITLE12=魔戒恋曲
TTITLE13=爱是无止境
EXTD=
EXTT0=
EXTT1=
EXTT2=
EXTT3=
EXTT4=
EXTT5=
EXTT6=
EXTT7=
EXTT8=
EXTT9=
EXTT10=
EXTT11=
EXTT12=
EXTT13=
PLAYORDER=
